<svg version="1.1" xmlns="http://www.w3.org/2000/svg" xmlns:xlink="http://www.w3.org/1999/xlink" width="48" height="48"><defs><linearGradient x1="14.22989" y1="14.22989" x2="54.98331" y2="54.98331" gradientUnits="userSpaceOnUse" id="color-1"><stop offset="0" stop-color="#000000" stop-opacity="0.12"></stop><stop offset="1" stop-color="#000000" stop-opacity="0"></stop></linearGradient><filter id="dropshadow-base"><feColorMatrix type="matrix" values="0 0 0 0 0  0 0 0 0 0  0 0 0 0 0  0 0 0 .8 0"></feColorMatrix> <feOffset dx="0" dy="1"></feOffset> <feGaussianBlur stdDeviation="1"></feGaussianBlur> <feComposite in="SourceGraphic"></feComposite></filter><filter id="dropshadow-banner" x="-10%" y="-10%" width="120%" height="130%"><feColorMatrix type="matrix" values="0 0 0 0 0  0 0 0 0 0  0 0 0 0 0  0 0 0 .4 0"></feColorMatrix> <feOffset dx="0" dy="1"></feOffset> <feGaussianBlur stdDeviation="0.5"></feGaussianBlur> <feComposite in="SourceGraphic"></feComposite></filter></defs><g fill="none" fill-rule="nonzero" stroke="none" stroke-width="none" stroke-linecap="butt" stroke-linejoin="miter" stroke-miterlimit="10" stroke-dasharray="" stroke-dashoffset="0" font-family="none" font-weight="none" font-size="none" text-anchor="none" style="mix-blend-mode: normal"><path d="M7,43c-1.10457,0 -2,-0.89543 -2,-2v-34c0,-1.10457 0.89543,-2 2,-2h34c1.10457,0 2,0.89543 2,2v26l-10,10z" id="base 1 5 1 2" fill="#0da2f7" stroke-width="1"></path><path d="M22.91443,14.22989h2.17113l3.79949,3.79949l1.44923,-1.44923c0.19662,0.16809 0.38659,0.34378 0.56943,0.52663l0,0l12.09628,12.09628v3.79694l-10,10h-3.81656l-12.09172,-12.09172c-1.76812,-1.76812 -2.86183,-4.21065 -2.86183,-6.90828c0,-2.97445 1.34068,-5.62867 3.43583,-7.41985l5.24872,5.24872z" fill="url(#color-1)" stroke-width="1"></path><path d="M25.08557,14.22989h-2.17114v10.85568h2.17114zM30.33429,16.58014l-1.53608,1.53608c1.70434,1.39495 2.80076,3.50638 2.80076,5.88378c0,4.19572 -3.40325,7.59897 -7.59897,7.59897c-4.19572,0 -7.59897,-3.40325 -7.59897,-7.59897c0,-2.37739 1.09642,-4.48882 2.80076,-5.88378l-1.53608,-1.53608c-2.09515,1.79119 -3.43582,4.4454 -3.43582,7.41986c0,5.39527 4.37484,9.77011 9.77011,9.77011c5.39527,0 9.77011,-4.37484 9.77011,-9.77011c0,-2.97446 -1.34068,-5.62867 -3.43582,-7.41986z" fill="none" stroke-width="0"></path><path d="M25.08557,25.08557h-2.17114v-10.85568h2.17114zM33.77011,24c0,5.39527 -4.37484,9.77011 -9.77011,9.77011c-5.39527,0 -9.77011,-4.37484 -9.77011,-9.77011c0,-2.97446 1.34068,-5.62867 3.43582,-7.41986l1.53608,1.53608c-1.70434,1.39495 -2.80076,3.50638 -2.80076,5.88378c0,4.19572 3.40325,7.59897 7.59897,7.59897c4.19572,0 7.59897,-3.40325 7.59897,-7.59897c0,-2.37739 -1.09642,-4.48882 -2.80076,-5.88378l1.53608,-1.53608c2.09515,1.79119 3.43582,4.4454 3.43582,7.41986z" fill="#ffffff" stroke-width="0"></path><path d="M2,24c0,-12.15026 9.84974,-22 22,-22c12.15026,0 22,9.84974 22,22c0,12.15026 -9.84974,22 -22,22c-12.15026,0 -22,-9.84974 -22,-22z" id="base 1 1 1" fill="none" stroke-width="1"></path><g fill="#000000" stroke-width="1" font-family="Roboto,sans-serif" font-weight="400" font-size="14" text-anchor="start"></g><rect x="2" y="2" width="44" height="22" fill="none" stroke-width="1"></rect><path d="M2,24v-22h44v22z" fill="none" stroke-width="1"></path><path d="M2,24v-22h44v22z" fill="none" stroke-width="1"></path><path d="M2,24v-22h44v22z" fill="none" stroke-width="1"></path><path d="M2,24v-22h44v22z" fill="none" stroke-width="1"></path><path d="M43,33l-10,10v-8c0,-1 1,-2 2,-2z" fill="#2bc0ff" stroke-width="1"></path></g></svg>